<?xml version="1.0" standalone="no"?>
<!DOCTYPE svg PUBLIC "-//W3C//DTD SVG 20010904//EN"
 "http://www.w3.org/TR/2001/REC-SVG-20010904/DTD/svg10.dtd">
<svg version="1.0" xmlns="http://www.w3.org/2000/svg"
 width="107.000000pt" height="107.000000pt" viewBox="0 0 107.000000 107.000000"
 preserveAspectRatio="xMidYMid meet">

<g transform="translate(0.000000,1024.000000) scale(0.100000,-0.100000)"
fill="#ff3860" stroke="none">
<path d="M3465 8849 c-220 -29 -429 -170 -546 -370 -244 -419 -238 -1008 16
-1534 164 -340 428 -604 708 -710 206 -77 408 -66 607 35 149 75 254 185 340
357 101 202 142 386 142 633 -1 617 -302 1203 -757 1476 -154 93 -345 135
-510 113z"/>
<path d="M6588 8844 c-198 -36 -374 -138 -564 -330 -290 -292 -483 -785 -484
-1233 0 -430 157 -798 417 -974 274 -184 631 -156 923 72 302 237 502 557 601
961 39 163 51 262 51 440 1 178 -15 278 -68 445 -64 200 -128 308 -251 426
-118 112 -253 177 -416 199 -96 12 -112 12 -209 -6z"/>
<path d="M1535 6708 c-316 -59 -525 -262 -631 -613 -26 -85 -28 -101 -28 -285
0 -172 2 -205 22 -280 70 -259 165 -437 321 -603 131 -137 289 -240 461 -298
90 -31 103 -33 250 -33 136 -1 164 2 230 22 251 79 407 236 518 522 56 145 77
373 49 535 -38 214 -130 436 -244 590 -113 152 -308 305 -486 382 -144 63
-326 87 -462 61z"/>
<path d="M8500 6714 c-200 -39 -355 -116 -538 -268 -233 -194 -385 -494 -422
-836 -43 -393 137 -778 436 -932 142 -73 185 -83 364 -82 142 0 162 3 240 28
237 79 445 235 587 442 207 303 287 671 213 979 -100 419 -367 657 -750 670
-58 2 -116 1 -130 -1z"/>
<path d="M5020 5644 c-465 -54 -862 -239 -1410 -658 -224 -171 -504 -428 -666
-611 -456 -517 -783 -1058 -918 -1523 -49 -170 -64 -248 -78 -411 -31 -377 82
-642 358 -835 234 -165 632 -246 1012 -206 263 28 487 79 899 206 406 125 613
173 827 193 219 21 511 -33 991 -184 618 -195 969 -252 1313 -214 447 49 748
223 898 520 54 108 75 205 81 367 11 299 -58 584 -234 967 -232 502 -713 1127
-1183 1534 -554 480 -1051 755 -1515 837 -81 14 -311 26 -375 18z"/>
</g>
</svg>
