<?xml version="1.0" standalone="no"?>
<!DOCTYPE svg PUBLIC "-//W3C//DTD SVG 20010904//EN"
 "http://www.w3.org/TR/2001/REC-SVG-20010904/DTD/svg10.dtd">
<svg version="1.0" xmlns="http://www.w3.org/2000/svg"
 width="48.000000pt" height="48.000000pt" viewBox="0 0 48.000000 48.000000"
 preserveAspectRatio="xMidYMid meet">

<g transform="translate(0.000000,48.000000) scale(0.100000,-0.100000)"
fill="#ff3860" stroke="none">
<path d="M215 435 c-5 -2 -22 -6 -37 -9 -35 -8 -94 -59 -115 -100 -20 -37 -21
-131 -3 -166 37 -73 101 -113 180 -113 79 0 143 40 180 113 18 34 17 129 -2
165 -18 33 -62 77 -93 93 -23 11 -95 23 -110 17z m106 -51 c63 -32 98 -114 78
-186 -32 -122 -186 -163 -275 -74 -134 134 28 348 197 260z"/>
<path d="M151 306 c9 -20 9 -29 -1 -41 -16 -19 -7 -19 30 0 44 23 41 27 -33
63 -4 2 -2 -8 4 -22z"/>
<path d="M298 312 c-35 -21 -35 -28 2 -47 37 -19 46 -19 30 0 -10 12 -10 21
-2 40 13 29 8 30 -30 7z"/>
<path d="M140 196 c0 -8 11 -28 24 -43 21 -24 32 -28 76 -28 44 0 55 4 76 28
44 51 35 57 -76 57 -81 0 -100 -3 -100 -14z"/>
</g>
</svg>
