<?xml version="1.0" standalone="no"?>
<!DOCTYPE svg PUBLIC "-//W3C//DTD SVG 20010904//EN"
 "http://www.w3.org/TR/2001/REC-SVG-20010904/DTD/svg10.dtd">
<svg version="1.0" xmlns="http://www.w3.org/2000/svg"
 width="48.000000pt" height="48.000000pt" viewBox="0 0 48.000000 48.000000"
 preserveAspectRatio="xMidYMid meet">

<g transform="translate(0.000000,48.000000) scale(0.100000,-0.100000)"
fill="#ff3860" stroke="none">
<path d="M300 338 c0 -74 16 -98 68 -98 46 0 72 39 72 106 0 58 -6 65 -33 34
-22 -26 -55 -25 -84 2 l-23 21 0 -65z m50 -16 c0 -13 -12 -22 -22 -16 -10 6
-1 24 13 24 5 0 9 -4 9 -8z m62 -7 c0 -5 -5 -11 -11 -13 -6 -2 -11 4 -11 13 0
9 5 15 11 13 6 -2 11 -8 11 -13z"/>
<path d="M40 345 c0 -9 8 -19 18 -22 29 -11 32 -24 32 -145 0 -139 -1 -138
114 -138 83 0 103 12 67 41 l-22 18 48 35 48 35 3 -65 c3 -56 5 -64 22 -64 18
0 20 7 20 85 l0 85 -29 0 c-32 0 -91 43 -91 66 0 8 -4 14 -9 14 -24 0 -79 -26
-103 -48 l-28 -26 0 56 c0 40 -5 59 -18 71 -24 22 -72 23 -72 2z"/>
</g>
</svg>
